# Blender v2.82 (sub 7) OBJ File: 'cubetank.blend'
# www.blender.org
mtllib body.mtl
o body_Circle.026
v 0.213014 0.032904 -0.864584
v 0.227060 0.200990 -0.847971
v 0.198967 -0.135181 -0.847971
v 0.185460 -0.296808 -0.798772
v 0.173012 -0.445764 -0.718876
v 0.162101 -0.576325 -0.611354
v 0.162101 -0.576326 0.611353
v 0.173011 -0.445765 0.718875
v 0.185460 -0.296809 0.798771
v 0.198967 -0.135183 0.847971
v 0.213014 0.032904 0.864584
v 0.227060 0.200990 0.847971
v 0.240568 0.362616 0.798771
v 0.253016 0.511572 0.718875
v 0.263927 0.642133 0.611353
v 0.272881 0.749282 0.480337
v 0.279535 0.828900 0.330862
v 0.283632 0.877929 0.168672
v 0.285016 0.894484 -0.000000
v 0.283632 0.877929 -0.168672
v 0.279535 0.828900 -0.330862
v 0.272881 0.749282 -0.480337
v 0.263927 0.642133 -0.611353
v 0.253016 0.511572 -0.718875
v 0.240568 0.362617 -0.798771
v 0.141691 0.510363 0.718875
v 0.141724 0.483186 0.733465
v 0.048879 0.032904 0.864584
v 0.048879 -0.020818 0.860067
v -0.213014 0.032904 -0.864584
v -0.227060 0.200990 -0.847971
v -0.198967 -0.135181 -0.847971
v -0.000000 0.032904 -0.864584
v -0.000000 0.200024 -0.847971
v 0.000000 -0.134215 -0.847971
v 0.000000 -0.294914 -0.798772
v 0.000000 -0.443014 -0.718876
v -0.185460 -0.296808 -0.798772
v -0.173011 -0.445764 -0.718876
v -0.162101 -0.576325 -0.611354
v 0.000000 -0.572825 -0.611354
v -0.162100 -0.576326 0.611353
v -0.173011 -0.445765 0.718875
v 0.000000 -0.572827 0.611353
v 0.000000 -0.443016 0.718875
v 0.000000 -0.294915 0.798771
v 0.000000 -0.134217 0.847971
v -0.185460 -0.296809 0.798771
v -0.198967 -0.135183 0.847971
v -0.213014 0.032904 0.864584
v -0.227060 0.200990 0.847971
v -0.000000 0.032904 0.864584
v -0.000000 0.200024 0.847971
v -0.000000 0.360723 0.798771
v -0.000000 0.508823 0.718875
v -0.240568 0.362616 0.798771
v -0.253016 0.511572 0.718875
v -0.263927 0.642133 0.611353
v -0.272881 0.749282 0.480337
v -0.000000 0.638634 0.611353
v -0.000000 0.745167 0.480337
v -0.000000 0.824328 0.330862
v -0.000000 0.873075 0.168672
v -0.279535 0.828900 0.330862
v -0.283632 0.877929 0.168672
v -0.285016 0.894484 -0.000000
v -0.283632 0.877929 -0.168672
v -0.000000 0.889535 -0.000000
v -0.000000 0.873075 -0.168672
v -0.000000 0.824328 -0.330862
v -0.000000 0.745167 -0.480337
v -0.279535 0.828900 -0.330862
v -0.272881 0.749282 -0.480337
v -0.263927 0.642133 -0.611353
v -0.253016 0.511572 -0.718875
v -0.000000 0.638634 -0.611353
v -0.000000 0.508823 -0.718875
v -0.000000 0.360723 -0.798771
v -0.240568 0.362616 -0.798771
v -0.141691 0.510363 0.718875
v -0.000000 0.483186 0.732706
v -0.141724 0.483186 0.733465
v -0.048879 0.032904 0.864584
v 0.000000 -0.020818 0.860041
v -0.048879 -0.020818 0.860067
v 0.200813 0.207184 -0.739141
v 0.188390 0.058528 -0.753834
v 0.175967 -0.090127 -0.739142
v -0.000000 0.058528 -0.753834
v -0.000000 0.206330 -0.739141
v 0.000000 -0.089273 -0.739142
v 0.000000 -0.231395 -0.695629
v 0.000000 -0.362376 -0.624969
v 0.164021 -0.233070 -0.695629
v 0.153012 -0.364808 -0.624969
v 0.143362 -0.480276 -0.529876
v 0.000000 -0.477181 -0.529876
v 0.143362 -0.480277 0.551490
v 0.000000 -0.477182 0.551490
v 0.153012 -0.364809 0.646583
v 0.000000 -0.362377 0.646583
v 0.241337 0.692095 0.435619
v -0.000000 0.688456 0.435619
v -0.000000 0.758466 0.303423
v -0.000000 0.801579 0.159981
v 0.247221 0.762510 0.303423
v 0.250845 0.805871 0.159981
v 0.252069 0.820513 0.010807
v 0.250845 0.805871 -0.138367
v -0.000000 0.816136 0.010807
v -0.000000 0.801579 -0.138367
v -0.000000 0.758466 -0.281808
v -0.000000 0.688456 -0.414005
v 0.247221 0.762510 -0.281808
v 0.241337 0.692095 -0.414005
v 0.233418 0.597332 -0.529876
v 0.223768 0.481864 -0.624969
v -0.000000 0.594238 -0.529876
v -0.000000 0.479432 -0.624969
v -0.000000 0.348452 -0.695629
v 0.212759 0.350127 -0.695629
v -0.200813 0.207184 -0.739141
v -0.188390 0.058528 -0.753834
v -0.175967 -0.090127 -0.739142
v -0.164021 -0.233070 -0.695629
v -0.153012 -0.364808 -0.624969
v -0.143362 -0.480276 -0.529876
v -0.143362 -0.480277 0.551490
v -0.153012 -0.364809 0.646583
v -0.241337 0.692095 0.435619
v -0.247222 0.762510 0.303423
v -0.250845 0.805871 0.159981
v -0.252069 0.820513 0.010807
v -0.250845 0.805871 -0.138367
v -0.247222 0.762510 -0.281808
v -0.241337 0.692095 -0.414005
v -0.233418 0.597332 -0.529876
v -0.223768 0.481864 -0.624969
v -0.212759 0.350127 -0.695629
vt 0.825214 0.770851
vt 0.771689 0.771075
vt 0.774983 0.732583
vt 0.825197 0.732583
vt 0.778294 0.693331
vt 0.825197 0.693554
vt 0.781495 0.654827
vt 0.825214 0.655265
vt 0.784463 0.618551
vt 0.825247 0.619187
vt 0.787084 0.585897
vt 0.540125 0.987741
vt 0.340231 0.747621
vt 0.579886 0.589757
vt 0.803873 0.839947
vt 0.803874 0.982492
vt 0.765652 0.982492
vt 0.939495 0.504251
vt 0.943819 0.550240
vt 0.876196 0.551285
vt 0.948728 0.604330
vt 0.876240 0.605046
vt 0.954035 0.664442
vt 0.876267 0.664802
vt 0.895378 0.707829
vt 0.959534 0.728267
vt 0.895381 0.728258
vt 0.965016 0.793350
vt 0.876267 0.792968
vt 0.970268 0.857192
vt 0.876240 0.856453
vt 0.931598 0.905895
vt 0.975090 0.917339
vt 0.931577 0.916869
vt 0.979295 0.971479
vt 0.876137 0.970123
vt 0.690431 0.896578
vt 0.687852 0.868702
vt 0.752185 0.868609
vt 0.685915 0.835933
vt 0.751819 0.835830
vt 0.684695 0.799531
vt 0.751566 0.799422
vt 0.684240 0.760895
vt 0.751437 0.760783
vt 0.684566 0.721508
vt 0.751437 0.721399
vt 0.685662 0.682886
vt 0.751566 0.682783
vt 0.687485 0.646512
vt 0.751819 0.646419
vt 0.689965 0.613783
vt 0.752185 0.613704
vt 0.693006 0.585959
vt 0.825296 0.839311
vt 0.765652 0.839947
vt 0.768538 0.807327
vt 0.825247 0.806889
vt 0.774983 0.732583
vt 0.771689 0.771075
vt 0.778294 0.693331
vt 0.781495 0.654827
vt 0.784463 0.618551
vt 0.787084 0.585897
vt 0.462130 0.972446
vt 0.618119 0.601191
vt 0.351829 0.709929
vt 0.765652 0.982492
vt 0.939495 0.504251
vt 0.876137 0.505584
vt 0.943819 0.550240
vt 0.948728 0.604330
vt 0.895378 0.707829
vt 0.876273 0.707828
vt 0.895381 0.728258
vt 0.876276 0.728255
vt 0.965016 0.793350
vt 0.931598 0.905895
vt 0.876203 0.905917
vt 0.931577 0.916869
vt 0.876196 0.916271
vt 0.690431 0.896578
vt 0.752652 0.896499
vt 0.687852 0.868702
vt 0.685915 0.835933
vt 0.684695 0.799531
vt 0.684566 0.721508
vt 0.684240 0.760895
vt 0.685662 0.682886
vt 0.687485 0.646512
vt 0.689965 0.613783
vt 0.693006 0.585959
vt 0.768538 0.807327
vt 0.765652 0.839947
vt 0.774983 0.732583
vt 0.771689 0.771075
vt 0.825214 0.770851
vt 0.778294 0.693331
vt 0.825197 0.732583
vt 0.781495 0.654827
vt 0.825197 0.693554
vt 0.784463 0.618551
vt 0.825214 0.655265
vt 0.787084 0.585897
vt 0.825247 0.619187
vt 0.765652 0.982492
vt 0.803874 0.982492
vt 0.803873 0.839947
vt 0.939495 0.504251
vt 0.876137 0.505584
vt 0.876196 0.551285
vt 0.687852 0.868702
vt 0.752185 0.868609
vt 0.751819 0.835830
vt 0.685915 0.835933
vt 0.751566 0.799422
vt 0.684695 0.799531
vt 0.751437 0.760783
vt 0.684566 0.721508
vt 0.684240 0.760895
vt 0.685662 0.682886
vt 0.751437 0.721399
vt 0.687485 0.646512
vt 0.751566 0.682783
vt 0.689965 0.613783
vt 0.751819 0.646419
vt 0.693006 0.585959
vt 0.752185 0.613704
vt 0.768538 0.807327
vt 0.765652 0.839947
vt 0.825296 0.839311
vt 0.825247 0.806889
vt 0.771689 0.771075
vt 0.774983 0.732583
vt 0.778294 0.693331
vt 0.781495 0.654827
vt 0.784463 0.618551
vt 0.787084 0.585897
vt 0.765652 0.982492
vt 0.939495 0.504251
vt 0.943819 0.550240
vt 0.687852 0.868702
vt 0.685915 0.835933
vt 0.684695 0.799531
vt 0.684240 0.760895
vt 0.684566 0.721508
vt 0.685662 0.682886
vt 0.687485 0.646512
vt 0.689965 0.613783
vt 0.693006 0.585959
vt 0.765652 0.839947
vt 0.768538 0.807327
vt 0.000000 0.000000
vt 0.000000 0.000000
vt 0.000000 0.000000
vt 0.000000 0.000000
vt 0.000000 0.000000
vt 0.000000 0.000000
vt 0.825296 0.586706
vt 0.462130 0.972446
vt 0.500364 0.983880
vt 0.618119 0.972446
vt 0.579886 0.983880
vt 0.684240 0.928892
vt 0.653355 0.953879
vt 0.653355 0.619758
vt 0.684240 0.644745
vt 0.618119 0.601191
vt 0.426894 0.619758
vt 0.540125 0.585897
vt 0.500363 0.589757
vt 0.462130 0.601191
vt 0.370663 0.675193
vt 0.396009 0.644746
vt 0.351829 0.709929
vt 0.340231 0.826017
vt 0.336315 0.786819
vt 0.370663 0.898445
vt 0.351829 0.863708
vt 0.426894 0.953879
vt 0.396010 0.928892
vt 0.765652 0.839947
vt 0.752652 0.585897
vt 0.540125 0.987741
vt 0.500364 0.983880
vt 0.351829 0.863708
vt 0.426894 0.953879
vt 0.396010 0.928892
vt 0.370663 0.898445
vt 0.340231 0.826017
vt 0.336315 0.786819
vt 0.340231 0.747621
vt 0.396009 0.644746
vt 0.370663 0.675193
vt 0.426894 0.619758
vt 0.462130 0.601191
vt 0.540125 0.585897
vt 0.500363 0.589757
vt 0.579886 0.589757
vt 0.684240 0.644745
vt 0.653355 0.619758
vt 0.653355 0.953879
vt 0.684240 0.928892
vt 0.579886 0.983880
vt 0.618119 0.972446
vt 0.765652 0.839947
vt 0.954035 0.664442
vt 0.959534 0.728267
vt 0.970268 0.857192
vt 0.975090 0.917339
vt 0.979295 0.971479
vt 0.825296 0.586706
vt 0.765652 0.839947
vt 0.943819 0.550240
vt 0.752652 0.585897
vt 0.765652 0.839947
vt 0.000000 0.000000
vt 0.000000 0.000000
vt 0.000000 0.000000
vt 0.000000 0.000000
vt 0.000000 0.000000
vt 0.000000 0.000000
vn -0.0004 0.0984 -0.9951
vn 0.0000 -0.0984 -0.9952
vn -0.0014 -0.2911 -0.9567
vn -0.0048 -0.4724 -0.8814
vn -0.0101 -0.6352 -0.7723
vn 0.9965 -0.0833 0.0000
vn -0.0216 -0.9998 -0.0000
vn -0.0101 -0.6352 0.7723
vn -0.0048 -0.4724 0.8814
vn -0.0014 -0.2911 0.9567
vn 0.0000 -0.0838 0.9965
vn -0.0004 0.0988 0.9951
vn -0.0023 0.2914 0.9566
vn -0.0051 0.4730 0.8810
vn -0.0084 0.6369 0.7709
vn -0.0117 0.7744 0.6326
vn -0.0144 0.8828 0.4696
vn -0.0164 0.9572 0.2889
vn -0.0173 0.9951 0.0975
vn -0.0173 0.9951 -0.0975
vn -0.0164 0.9572 -0.2889
vn -0.0144 0.8828 -0.4696
vn -0.0117 0.7744 -0.6326
vn -0.0084 0.6361 -0.7716
vn -0.0051 0.4730 -0.8810
vn -0.0023 0.2914 -0.9566
vn 0.0004 0.0984 -0.9951
vn 0.0014 -0.2911 -0.9567
vn 0.0048 -0.4724 -0.8814
vn 0.0101 -0.6352 -0.7723
vn -0.9965 -0.0833 -0.0000
vn 0.0216 -0.9998 -0.0000
vn 0.0138 -0.6378 0.7701
vn 0.0075 -0.4748 0.8801
vn 0.0030 -0.2927 0.9562
vn 0.0005 -0.1058 0.9944
vn -0.0000 0.0989 0.9951
vn 0.0012 0.2927 0.9562
vn 0.0047 0.4748 0.8801
vn 0.0069 0.6379 0.7701
vn 0.0103 0.7758 0.6309
vn 0.0133 0.8836 0.4680
vn 0.0157 0.9576 0.2878
vn 0.0170 0.9951 0.0971
vn 0.0173 0.9951 -0.0975
vn 0.0164 0.9572 -0.2889
vn 0.0144 0.8828 -0.4696
vn 0.0117 0.7744 -0.6326
vn 0.0084 0.6361 -0.7716
vn 0.0051 0.4730 -0.8810
vn 0.0023 0.2914 -0.9566
vn 0.0004 -0.0984 0.9951
vn -0.0000 0.0984 0.9952
vn 0.0014 0.2911 0.9567
vn 0.0048 0.4724 0.8814
vn 0.0101 0.6352 0.7723
vn 0.0216 0.9998 0.0000
vn 0.0138 0.6378 -0.7701
vn 0.0133 -0.8836 -0.4680
vn 0.0157 -0.9576 -0.2878
vn 0.0170 -0.9951 -0.0971
vn 0.0173 -0.9951 0.0975
vn 0.0164 -0.9572 0.2889
vn 0.0144 -0.8828 0.4696
vn 0.0117 -0.7744 0.6326
vn 0.0084 -0.6361 0.7716
vn 0.0051 -0.4730 0.8810
vn 0.0023 -0.2914 0.9566
vn -0.0004 -0.0984 0.9951
vn -0.0014 0.2911 0.9567
vn -0.0048 0.4724 0.8814
vn -0.0101 0.6352 0.7723
vn -0.0216 0.9998 0.0000
vn -0.0101 0.6352 -0.7723
vn -0.0144 -0.8828 -0.4696
vn -0.0164 -0.9572 -0.2889
vn -0.0173 -0.9951 -0.0975
vn -0.0173 -0.9951 0.0975
vn -0.0164 -0.9572 0.2889
vn -0.0144 -0.8828 0.4696
vn -0.0117 -0.7744 0.6326
vn -0.0084 -0.6361 0.7716
vn -0.0051 -0.4730 0.8810
vn -0.0023 -0.2914 0.9566
vn 0.0145 -0.9620 -0.2727
vn 0.0145 0.9141 -0.4052
vn 0.0000 0.0989 -0.9951
vn -0.0005 -0.0989 -0.9951
vn -0.0030 -0.2927 -0.9562
vn -0.0075 -0.4748 -0.8801
vn -0.0138 -0.6378 -0.7701
vn -0.0138 -0.6378 0.7701
vn -0.0075 -0.4748 0.8801
vn -0.0030 -0.2927 0.9562
vn 0.0049 -0.0988 0.9951
vn -0.0005 -0.1058 0.9944
vn -0.0012 0.2927 0.9562
vn -0.0037 0.4739 0.8806
vn -0.0047 0.4748 0.8801
vn -0.0069 0.6360 0.7716
vn -0.0069 0.6379 0.7701
vn -0.0103 0.7758 0.6309
vn -0.0133 0.8836 0.4680
vn -0.0157 0.9576 0.2878
vn -0.0170 0.9951 0.0971
vn -0.0170 0.9951 -0.0971
vn -0.0157 0.9576 -0.2878
vn -0.0133 0.8836 -0.4680
vn -0.0103 0.7758 -0.6309
vn -0.0069 0.6379 -0.7701
vn -0.0037 0.4748 -0.8801
vn -0.0012 0.2927 -0.9562
vn 0.0005 -0.0989 -0.9951
vn 0.0030 -0.2927 -0.9562
vn 0.0075 -0.4748 -0.8801
vn 0.0138 -0.6378 -0.7701
vn 0.0101 -0.6352 0.7723
vn 0.0048 -0.4724 0.8814
vn 0.0014 -0.2911 0.9567
vn -0.0049 -0.0988 0.9951
vn 0.0004 0.0988 0.9951
vn 0.0023 0.2914 0.9566
vn 0.0037 0.4739 0.8806
vn 0.0051 0.4730 0.8810
vn 0.0069 0.6360 0.7716
vn 0.0084 0.6369 0.7709
vn 0.0117 0.7744 0.6326
vn 0.0144 0.8828 0.4696
vn 0.0164 0.9572 0.2889
vn 0.0173 0.9951 0.0975
vn 0.0170 0.9951 -0.0971
vn 0.0157 0.9576 -0.2878
vn 0.0133 0.8836 -0.4680
vn 0.0103 0.7758 -0.6309
vn 0.0069 0.6379 -0.7701
vn 0.0037 0.4748 -0.8801
vn 0.0012 0.2927 -0.9562
vn 0.0000 -0.0989 0.9951
vn 0.0005 0.0989 0.9951
vn 0.0030 0.2927 0.9562
vn 0.0075 0.4748 0.8801
vn 0.0138 0.6378 0.7701
vn 0.0101 0.6352 -0.7723
vn 0.0144 -0.8828 -0.4696
vn 0.0164 -0.9572 -0.2889
vn 0.0173 -0.9951 -0.0975
vn 0.0170 -0.9951 0.0971
vn 0.0157 -0.9576 0.2878
vn 0.0133 -0.8836 0.4680
vn 0.0103 -0.7758 0.6309
vn 0.0069 -0.6379 0.7701
vn 0.0037 -0.4748 0.8801
vn 0.0012 -0.2927 0.9562
vn -0.0005 0.0989 0.9951
vn -0.0030 0.2927 0.9562
vn -0.0075 0.4748 0.8801
vn -0.0138 0.6378 0.7701
vn -0.0138 0.6378 -0.7701
vn -0.0133 -0.8836 -0.4680
vn -0.0157 -0.9576 -0.2878
vn -0.0170 -0.9951 -0.0971
vn -0.0170 -0.9951 0.0971
vn -0.0157 -0.9576 0.2878
vn -0.0133 -0.8836 0.4680
vn -0.0103 -0.7758 0.6309
vn -0.0069 -0.6379 0.7701
vn -0.0037 -0.4748 0.8801
vn -0.0012 -0.2927 0.9562
vn -0.0127 -0.9614 -0.2750
vn 0.0127 -0.9614 -0.2750
vn -0.0145 -0.9620 -0.2727
vn -0.0093 0.9122 -0.4096
vn 0.0093 0.9122 -0.4096
vn -0.0145 0.9141 -0.4052
usemtl Material.001
s off
f 34/1/1 2/2/1 1/3/1
f 33/4/2 1/3/2 3/5/2
f 35/6/3 3/5/3 4/7/3
f 36/8/4 4/7/4 5/9/4
f 37/10/5 5/9/5 6/11/5
f 1/12/6 18/13/6 10/14/6
f 44/15/7 41/16/7 6/17/7
f 7/18/8 8/19/8 45/20/8
f 8/19/9 9/21/9 46/22/9
f 9/21/10 10/23/10 47/24/10
f 29/25/11 11/26/11 28/27/11
f 28/27/12 12/28/12 53/29/12
f 12/28/13 13/30/13 54/31/13
f 27/32/14 14/33/14 26/34/14
f 26/34/15 15/35/15 60/36/15
f 15/37/16 16/38/16 61/39/16
f 16/38/17 17/40/17 62/41/17
f 17/40/18 18/42/18 63/43/18
f 18/42/19 19/44/19 68/45/19
f 68/45/20 19/44/20 20/46/20
f 69/47/21 20/46/21 21/48/21
f 70/49/22 21/48/22 22/50/22
f 71/51/23 22/50/23 23/52/23
f 76/53/24 23/52/24 24/54/24
f 77/55/25 24/56/25 25/57/25
f 78/58/26 25/57/26 2/2/26
f 30/59/27 31/60/27 34/1/27
f 32/61/2 30/59/2 33/4/2
f 38/62/28 32/61/28 35/6/28
f 39/63/29 38/62/29 36/8/29
f 40/64/30 39/63/30 37/10/30
f 79/65/31 48/66/31 64/67/31
f 40/68/32 41/16/32 44/15/32
f 42/69/33 44/70/33 45/20/33
f 43/71/34 45/20/34 46/22/34
f 48/72/35 46/22/35 47/24/35
f 85/73/36 47/24/36 84/74/36
f 53/29/37 83/75/37 52/76/37
f 51/77/38 53/29/38 54/31/38
f 82/78/39 54/31/39 81/79/39
f 60/36/40 80/80/40 55/81/40
f 58/82/41 60/83/41 61/39/41
f 59/84/42 61/39/42 62/41/42
f 64/85/43 62/41/43 63/43/43
f 65/86/44 63/43/44 68/45/44
f 67/87/45 66/88/45 68/45/45
f 72/89/46 67/87/46 69/47/46
f 73/90/47 72/89/47 70/49/47
f 74/91/48 73/90/48 71/51/48
f 75/92/49 74/91/49 76/53/49
f 79/93/50 75/94/50 77/55/50
f 31/60/51 79/93/51 78/58/51
f 87/95/52 86/96/52 90/97/52
f 88/98/53 87/95/53 89/99/53
f 94/100/54 88/98/54 91/101/54
f 95/102/55 94/100/55 92/103/55
f 96/104/56 95/102/56 93/105/56
f 96/106/57 97/107/57 99/108/57
f 98/109/58 99/110/58 101/111/58
f 102/112/59 103/113/59 104/114/59
f 106/115/60 104/114/60 105/116/60
f 107/117/61 105/116/61 110/118/61
f 109/119/62 108/120/62 110/118/62
f 114/121/63 109/119/63 111/122/63
f 115/123/64 114/121/64 112/124/64
f 116/125/65 115/123/65 113/126/65
f 117/127/66 116/125/66 118/128/66
f 121/129/67 117/130/67 119/131/67
f 86/96/68 121/129/68 120/132/68
f 90/97/69 122/133/69 123/134/69
f 89/99/53 123/134/53 124/135/53
f 91/101/70 124/135/70 125/136/70
f 92/103/71 125/136/71 126/137/71
f 93/105/72 126/137/72 127/138/72
f 99/108/73 97/107/73 127/139/73
f 128/140/74 129/141/74 101/111/74
f 130/142/75 131/143/75 104/114/75
f 131/143/76 132/144/76 105/116/76
f 132/144/77 133/145/77 110/118/77
f 110/118/78 133/145/78 134/146/78
f 111/122/79 134/146/79 135/147/79
f 112/124/80 135/147/80 136/148/80
f 113/126/81 136/148/81 137/149/81
f 118/128/82 137/149/82 138/150/82
f 119/131/83 138/151/83 139/152/83
f 120/132/84 139/152/84 122/133/84
f 60/153/85 103/154/85 102/155/85
f 46/156/86 100/157/86 101/158/86
f 34/1/87 1/3/87 33/4/87
f 33/4/88 3/5/88 35/6/88
f 35/6/89 4/7/89 36/8/89
f 36/8/90 5/9/90 37/10/90
f 37/10/91 6/11/91 41/159/91
f 25/160/6 1/12/6 2/161/6
f 1/12/6 4/162/6 3/163/6
f 4/162/6 6/164/6 5/165/6
f 6/164/6 8/166/6 7/167/6
f 8/166/6 6/164/6 9/168/6
f 9/168/6 6/164/6 10/14/6
f 10/14/6 14/169/6 11/170/6
f 11/170/6 14/169/6 12/171/6
f 12/171/6 14/169/6 13/172/6
f 14/169/6 16/173/6 15/174/6
f 16/173/6 14/169/6 17/175/6
f 17/175/6 14/169/6 18/13/6
f 18/13/6 20/176/6 19/177/6
f 20/176/6 22/178/6 21/179/6
f 22/178/6 24/180/6 23/181/6
f 24/180/6 22/178/6 25/160/6
f 25/160/6 22/178/6 1/12/6
f 1/12/6 10/14/6 4/162/6
f 4/162/6 10/14/6 6/164/6
f 18/13/6 1/12/6 20/176/6
f 20/176/6 1/12/6 22/178/6
f 10/14/6 18/13/6 14/169/6
f 44/15/7 6/17/7 7/182/7
f 7/18/92 45/20/92 44/70/92
f 8/19/93 46/22/93 45/20/93
f 9/21/94 47/24/94 46/22/94
f 11/26/95 29/25/95 10/23/95
f 10/23/96 29/25/96 47/24/96
f 47/24/96 29/25/96 84/74/96
f 12/28/53 28/27/53 11/26/53
f 28/27/37 53/29/37 52/76/37
f 12/28/97 54/31/97 53/29/97
f 14/33/14 27/32/14 13/30/14
f 13/30/98 27/32/98 54/31/98
f 54/31/99 27/32/99 81/79/99
f 15/35/100 26/34/100 14/33/100
f 26/34/101 60/36/101 55/81/101
f 15/37/102 61/39/102 60/83/102
f 16/38/103 62/41/103 61/39/103
f 17/40/104 63/43/104 62/41/104
f 18/42/105 68/45/105 63/43/105
f 68/45/106 20/46/106 69/47/106
f 69/47/107 21/48/107 70/49/107
f 70/49/108 22/50/108 71/51/108
f 71/51/109 23/52/109 76/53/109
f 76/53/110 24/54/110 77/183/110
f 77/55/111 25/57/111 78/58/111
f 78/58/112 2/2/112 34/1/112
f 30/59/87 34/1/87 33/4/87
f 32/61/113 33/4/113 35/6/113
f 38/62/114 35/6/114 36/8/114
f 39/63/115 36/8/115 37/10/115
f 40/64/116 37/10/116 41/159/116
f 30/184/31 79/65/31 31/185/31
f 79/65/31 72/186/31 75/187/31
f 75/187/31 72/186/31 74/188/31
f 74/188/31 72/186/31 73/189/31
f 72/186/31 64/67/31 67/190/31
f 67/190/31 64/67/31 66/191/31
f 66/191/31 64/67/31 65/192/31
f 64/67/31 58/193/31 59/194/31
f 58/193/31 64/67/31 57/195/31
f 57/195/31 64/67/31 56/196/31
f 56/196/31 50/197/31 51/198/31
f 50/197/31 48/66/31 49/199/31
f 48/66/31 42/200/31 43/201/31
f 42/200/31 39/202/31 40/203/31
f 39/202/31 32/204/31 38/205/31
f 32/204/31 79/65/31 30/184/31
f 56/196/31 64/67/31 50/197/31
f 50/197/31 64/67/31 48/66/31
f 48/66/31 79/65/31 42/200/31
f 42/200/31 79/65/31 39/202/31
f 39/202/31 79/65/31 32/204/31
f 79/65/31 64/67/31 72/186/31
f 40/68/32 44/15/32 42/206/32
f 42/69/117 45/20/117 43/71/117
f 43/71/118 46/22/118 48/72/118
f 48/72/119 47/24/119 49/207/119
f 47/24/36 85/73/36 49/207/36
f 49/207/120 85/73/120 50/208/120
f 50/208/11 85/73/11 83/75/11
f 83/75/53 51/77/53 50/208/53
f 51/77/121 83/75/121 53/29/121
f 51/77/122 54/31/122 56/209/122
f 54/31/123 82/78/123 56/209/123
f 56/209/124 82/78/124 57/210/124
f 57/210/124 82/78/124 80/80/124
f 80/80/125 58/211/125 57/210/125
f 58/211/126 80/80/126 60/36/126
f 58/82/127 61/39/127 59/84/127
f 59/84/128 62/41/128 64/85/128
f 64/85/129 63/43/129 65/86/129
f 65/86/130 68/45/130 66/88/130
f 67/87/131 68/45/131 69/47/131
f 72/89/132 69/47/132 70/49/132
f 73/90/133 70/49/133 71/51/133
f 74/91/134 71/51/134 76/53/134
f 75/92/135 76/53/135 77/183/135
f 79/93/136 77/55/136 78/58/136
f 31/60/137 78/58/137 34/1/137
f 87/95/138 90/97/138 89/99/138
f 88/98/139 89/99/139 91/101/139
f 94/100/140 91/101/140 92/103/140
f 95/102/141 92/103/141 93/105/141
f 96/104/142 93/105/142 97/212/142
f 96/106/57 99/108/57 98/213/57
f 98/109/143 101/111/143 100/214/143
f 102/112/144 104/114/144 106/115/144
f 106/115/145 105/116/145 107/117/145
f 107/117/146 110/118/146 108/120/146
f 109/119/147 110/118/147 111/122/147
f 114/121/148 111/122/148 112/124/148
f 115/123/149 112/124/149 113/126/149
f 116/125/150 113/126/150 118/128/150
f 117/127/151 118/128/151 119/215/151
f 121/129/152 119/131/152 120/132/152
f 86/96/153 120/132/153 90/97/153
f 90/97/138 123/134/138 89/99/138
f 89/99/154 124/135/154 91/101/154
f 91/101/155 125/136/155 92/103/155
f 92/103/156 126/137/156 93/105/156
f 93/105/157 127/138/157 97/212/157
f 99/108/73 127/139/73 128/216/73
f 128/140/158 101/111/158 99/110/158
f 130/142/159 104/114/159 103/113/159
f 131/143/160 105/116/160 104/114/160
f 132/144/161 110/118/161 105/116/161
f 110/118/162 134/146/162 111/122/162
f 111/122/163 135/147/163 112/124/163
f 112/124/164 136/148/164 113/126/164
f 113/126/165 137/149/165 118/128/165
f 118/128/166 138/150/166 119/215/166
f 119/131/167 139/152/167 120/132/167
f 120/132/168 122/133/168 90/97/168
f 130/217/169 60/153/169 58/218/169
f 60/153/170 102/155/170 15/219/170
f 103/154/171 60/153/171 130/217/171
f 129/220/172 48/221/172 46/156/172
f 46/156/173 9/222/173 100/157/173
f 101/158/174 129/220/174 46/156/174
